<svg xmlns="http://www.w3.org/2000/svg">
  <symbol id="logo-with-name" viewBox="0 0 125 35">
    <path fill="#01d167" d="M17.845,35q-.133,0-.266,0a17.655,17.655,0,0,1-6.7-1.328A17.289,17.289,0,0,1,5.23,29.922a.291.291,0,0,1-.118-.191.312.312,0,0,1,.118-.207c.091-.089,2.452-2.583,5.185-5.471l.012-.013.019-.021c3.311-3.5,7.064-7.463,7.233-7.628a.225.225,0,0,1,.14-.074c.04,0,.064.027.064.074.089.108,12.079,12.991,12.45,13.231.055.054.077.1.063.141s-.073.059-.165.059a13.867,13.867,0,0,1-2.245,1.89A17.326,17.326,0,0,1,19.212,34.9,9.084,9.084,0,0,1,17.845,35Zm57.8-4.183H72.988c-.2,0-.2-.1-.2-.2v-19.8c0-.2.1-.2.2-.2h2.857c.2,0,.2.1.2.2V13.11A6.1,6.1,0,0,1,78.8,10.722a7.169,7.169,0,0,1,5.815.178A6.868,6.868,0,0,1,88.3,15.3a8.637,8.637,0,0,1-.612,6.565,6.376,6.376,0,0,1-5.1,3.481,6.72,6.72,0,0,1-1.144.1,6.652,6.652,0,0,1-2.529-.5,6.431,6.431,0,0,1-2.653-1.89.517.517,0,0,1-.1-.149.517.517,0,0,0-.1-.149v7.66C76.05,30.817,76.05,30.817,75.642,30.817ZM80.6,12.772v0A4.288,4.288,0,0,0,77.683,13.9a4.48,4.48,0,0,0-1.634,3.681,5.535,5.535,0,0,1,.2.994,4.588,4.588,0,0,0,4.491,3.979H80.8a4.539,4.539,0,0,0,4.229-2.786,4.88,4.88,0,0,0,.2-3.183,4.52,4.52,0,0,0-2.959-3.481,4.306,4.306,0,0,0-1.674-.336ZM63.4,25.688a9.524,9.524,0,0,1-5.613-1.835.283.283,0,0,1-.155-.164.439.439,0,0,1,.053-.333,6.851,6.851,0,0,0,.556-1.059,9.923,9.923,0,0,1,.464-.931,8.4,8.4,0,0,1,1.162.467,12.059,12.059,0,0,0,1.287.529,6.213,6.213,0,0,0,3.265.4,3.038,3.038,0,0,0,1.02-.3,1.429,1.429,0,0,0,.811-1.041,1.4,1.4,0,0,0-.4-1.246,2.436,2.436,0,0,0-1.122-.6,14.68,14.68,0,0,0-1.643-.57c-.354-.107-.687-.208-1.01-.326l-1.53-.6a3.936,3.936,0,0,1,.2-7.162,8.824,8.824,0,0,1,3.228-.608c.148,0,.3,0,.445.011A11.47,11.47,0,0,1,68.8,11.518c.252.1.378.147.407.231s-.048.213-.2.465l-.918,1.791a.667.667,0,0,0-.056.063c-.036.045-.062.077-.116.077a.326.326,0,0,1-.134-.041,9.288,9.288,0,0,0-3.979-1.194,2.732,2.732,0,0,0-1.532.2,1.3,1.3,0,0,0-.918,1.093,1.129,1.129,0,0,0,.612,1.293,8.109,8.109,0,0,0,2.143.9,13.1,13.1,0,0,1,2.551.9,5.662,5.662,0,0,1,1.428.9,3.77,3.77,0,0,1,1.326,3.481,3.982,3.982,0,0,1-2.856,3.483A9.5,9.5,0,0,1,63.4,25.688Zm-16.643-.271a6.025,6.025,0,0,1-2.338-.469,4.57,4.57,0,0,1-2.658-2.6,4.407,4.407,0,0,1,.208-3.666,4.353,4.353,0,0,1,2.857-2.089,9.534,9.534,0,0,1,2.347-.3h4.387c.122,0,.215-.037.239-.093a.1.1,0,0,0-.035-.106,3.571,3.571,0,0,0-.1-1.093,2.586,2.586,0,0,0-2.245-1.89,7.057,7.057,0,0,0-4.285.5,5.8,5.8,0,0,0-1.326.8.189.189,0,0,1-.127.065c-.064,0-.122-.054-.179-.164a18.589,18.589,0,0,1-1.123-1.891c-.054-.053-.077-.1-.063-.139s.073-.059.165-.059a12.006,12.006,0,0,1,6.4-1.837c.349,0,.7.015,1.051.046a5.737,5.737,0,0,1,2.244.6A4.96,4.96,0,0,1,55.029,14.9a26.217,26.217,0,0,1,.1,2.886v7.362c0,.2-.1.2-.2.2H52.171c-.2,0-.2-.1-.2-.2V23.556a8.449,8.449,0,0,1-4.285,1.789A6.089,6.089,0,0,1,46.754,25.416Zm.724-6.736a7.07,7.07,0,0,0-1.939.3,1.686,1.686,0,0,0-1.122,1.194,2.22,2.22,0,0,0,1.632,2.586,4.745,4.745,0,0,0,3.675-.4,2.822,2.822,0,0,0,1.836-2.886,1.709,1.709,0,0,0,.1-.6c0-.2-.1-.2-.2-.2Zm70.361,6.7a9.277,9.277,0,0,1-3.114-.536,6.622,6.622,0,0,1-4.489-5.373,7.328,7.328,0,0,1,.51-4.675,7.041,7.041,0,0,1,5.509-4.177,10.1,10.1,0,0,1,3.877.1,5.639,5.639,0,0,1,4.389,4.078,10.17,10.17,0,0,1,.408,4.278c0,.2-.1.2-.2.2h-5.511a34.077,34.077,0,0,0-4.589-.311c-.3,0-.615,0-.92.012a.249.249,0,0,0-.225.086.215.215,0,0,0,.021.212,4.662,4.662,0,0,0,4.558,3.482h.034q.1,0,.191,0a5.735,5.735,0,0,0,3.993-1.595.2.2,0,0,1,.153-.073.194.194,0,0,1,.153.073c.254.248.487.5.713.744s.461.5.717.748a.188.188,0,0,1,.075.149.192.192,0,0,1-.075.15,9.033,9.033,0,0,1-4.083,2.188A9.33,9.33,0,0,1,117.839,25.384Zm-.122-12.545a4.3,4.3,0,0,0-2.515.8,4.138,4.138,0,0,0-1.7,2.85c-.04.076-.05.125-.032.154s.114.044.236.044h8.163c.2,0,.2-.1.2-.2a4.665,4.665,0,0,0-.714-2.089A3.849,3.849,0,0,0,118.5,12.91,4.366,4.366,0,0,0,117.717,12.839ZM95.164,25.248l-.032,0H92.377c-.2,0-.2,0-.2-.2V10.722c0-.2.1-.2.2-.2h2.755c.2,0,.2.1.2.2l.1,14.226a.266.266,0,0,1-.078.222A.279.279,0,0,1,95.164,25.248Zm8.371-.2-.034,0h-2.755c-.2,0-.2-.1-.2-.2V10.522c0-.2.1-.2.2-.2H103.6c.2,0,.2.1.2.2v2.387a5.694,5.694,0,0,1,.408-.5,5.61,5.61,0,0,1,3.979-2.088.906.906,0,0,0,.218-.041,1.06,1.06,0,0,1,.266-.048.313.313,0,0,1,.23.089.457.457,0,0,1,.115.447,1.189,1.189,0,0,0-.013.15v2.088c0,.2-.1.2-.2.2-.126-.009-.254-.014-.38-.014a5.02,5.02,0,0,0-2.58.71,4.077,4.077,0,0,0-2.04,3.582c-.068,1.662-.045,3.3-.023,4.881.011.785.023,1.59.023,2.38a.268.268,0,0,1-.08.222A.278.278,0,0,1,103.535,25.049ZM34.722,22.261h0a.223.223,0,0,1-.2-.2c-.078-.1-15.612-16.741-16.531-17.509-.13-.126-.222-.18-.307-.18-.12,0-.228.105-.407.279C17.136,4.787,1.046,21.864.843,22.162a.192.192,0,0,1-.119.065.067.067,0,0,1-.061-.039.264.264,0,0,1-.024-.126,16.383,16.383,0,0,1-.612-5.472A15.577,15.577,0,0,1,2.271,9.03,16.916,16.916,0,0,1,13.9.475,17.591,17.591,0,0,1,17.963,0,17.413,17.413,0,0,1,30.538,5.35a16.424,16.424,0,0,1,4.8,9.351,13.208,13.208,0,0,1,.2,2.884,22.708,22.708,0,0,1-.714,4.477C34.824,22.165,34.824,22.261,34.722,22.261ZM93.745,8.036A1.891,1.891,0,0,1,92.416,7.5a1.811,1.811,0,0,1-.549-1.354,2.01,2.01,0,0,1,1.939-1.989h.038a1.932,1.932,0,0,1,1.379.578,1.84,1.84,0,0,1,.52,1.411,1.879,1.879,0,0,1-.567,1.336,1.983,1.983,0,0,1-1.371.553Z"/>
  </symbol>
  <symbol id="home" viewBox="0 0 24 24">
    <g transform="translate(-2 4)"><rect fill="rgba(0, 0, 0, 0)" width="24" height="24" transform="translate(2 -4)"/><g transform="translate(2 -4)"><path fill="inherit" d="M23.5,14.772c0,.067,0,.133-.069.133a.149.149,0,0,1-.138-.133c-.207-.266-10.675-11.323-11.157-11.723-.207-.2-.275-.133-.482.067C11.588,3.182.707,14.639.569,14.838c-.069.067-.138.067-.138-.067a10.912,10.912,0,0,1-.413-3.663A10.341,10.341,0,0,1,1.533,6.046,11.451,11.451,0,0,1,9.384.318,11.829,11.829,0,0,1,20.61,3.582a10.907,10.907,0,0,1,3.237,6.261,8.818,8.818,0,0,1,.138,1.932A15.1,15.1,0,0,1,23.5,14.772Z" transform="translate(0 0)"/><path fill="inherit" d="M.08,9.109c-.069-.067-.138-.133,0-.266S8.275.25,8.482.05c.069-.067.138-.067.138,0,.275.333,8.2,8.726,8.4,8.859.069.067.069.133-.069.133a9.34,9.34,0,0,1-1.515,1.266,11.776,11.776,0,0,1-5.923,2.131,6.121,6.121,0,0,1-1.1.067A11.907,11.907,0,0,1,.08,9.109Z" transform="translate(3.451 10.925)"/></g></g>
  </symbol>
  <symbol id="cards" viewBox="0 0 24 24">
    <g transform="translate(-2.5 4)"><rect fill="rgba(255,255,255,0)" width="24" height="24" transform="translate(2.5 -4)"/><g transform="translate(2.5 -91.333)"><g transform="translate(0 98.333)"><path fill="inherit" d="M23.5,213.333H.5a.474.474,0,0,0-.5.5v7.053a2.485,2.485,0,0,0,2.5,2.519h19a2.485,2.485,0,0,0,2.5-2.519v-7.053A.474.474,0,0,0,23.5,213.333Zm-20,4.03h4a.5.5,0,0,1,0,1.008h-4a.5.5,0,0,1,0-1.008Zm7,3.023h-7a.5.5,0,0,1,0-1.008h7a.5.5,0,0,1,0,1.008Zm8.5,0a1.68,1.68,0,0,1-1-.3,1.68,1.68,0,0,1-1,.3,2.015,2.015,0,0,1,0-4.03,1.68,1.68,0,0,1,1,.3,1.68,1.68,0,0,1,1-.3,2.015,2.015,0,0,1,0,4.03Z" transform="translate(0 -213.333)"/></g><g transform="translate(0 90.333)"><path fill="inherit" d="M21.5,85.333H2.5c-1.4,0-2.5,1.378-2.5,3.132v1.253c0,.376.2.626.5.626h23c.3,0,.5-.251.5-.626V88.465C24,86.711,22.9,85.333,21.5,85.333Z" transform="translate(0 -85.333)"/></g></g></g>
  </symbol>
  <symbol id="payments" viewBox="0 0 24 24">
    <g transform="translate(-2 4.125)"><rect fill="rgba(255,255,255,0)" width="24" height="24" transform="translate(2 -4)"/><g transform="translate(-21.169 -14)"><path fill="inherit" stroke="#0c365a" stroke-linecap="round" stroke-linejoin="round" stroke-width="0.25px" d="M35.169,10A11.837,11.837,0,0,0,23.5,22,11.838,11.838,0,0,0,35.167,34a11.33,11.33,0,0,0,6.651-2.2c.5-.473.811-.529.811-1.041l.007-.1a1.075,1.075,0,0,0-1.06-1.09,1.026,1.026,0,0,0-.764.343,9.322,9.322,0,0,1-5.633,1.9,9.7,9.7,0,0,1-9.563-9.833,9.567,9.567,0,1,1,19.127,0,10.009,10.009,0,0,1-.921,4.19,9.724,9.724,0,0,0-.49,1.185l-.007.1a1.078,1.078,0,0,0,1.063,1.092,1.054,1.054,0,0,0,1-.776l0,0A12.189,12.189,0,0,0,46.836,22,11.835,11.835,0,0,0,35.169,10ZM28.653,20.7a1.045,1.045,0,0,0,.3.676,1.026,1.026,0,0,0,.676.3h0a.791.791,0,0,0,.108,0l10.8,0a1.033,1.033,0,1,0,0-2.067l-8.437.012,1.222-1.234a1,1,0,0,0-1.413-1.413l-2.956,2.983a.988.988,0,0,0-.289.632l-.007,0a.654.654,0,0,0,0,.11ZM36.9,27.591a1,1,0,0,0,1.416,0l2.958-2.978a1,1,0,0,0,.289-.629l.007,0s0-.073,0-.108h0a1.039,1.039,0,0,0-.3-.673,1.05,1.05,0,0,0-.676-.3h0a.791.791,0,0,0-.108,0l-10.8,0a1.031,1.031,0,1,0,0,2.062l8.439-.012-1.222,1.237A.987.987,0,0,0,36.9,27.591Z" transform="translate(0 0)"/></g></g>
  </symbol>
  <symbol id="credit" viewBox="0 0 24 24">
    <g transform="translate(-1.5 4)"><rect fill="rgba(255,255,255,0)" width="24" height="24" transform="translate(1.5 -4)"/><g transform="translate(1.5 -4.001)"><path fill="inherit" d="M12,24A12,12,0,0,1,3.515,3.516,12,12,0,0,1,20.485,20.487,11.922,11.922,0,0,1,12,24ZM10.453,9.746v8.837a1.162,1.162,0,0,0,1.161,1.161h.775a1.162,1.162,0,0,0,1.161-1.161V9.746l3.5,3.652a1.159,1.159,0,0,0,1.659.021l.527-.533a1.161,1.161,0,0,0,.342-.827,1.142,1.142,0,0,0-.342-.812L12.823,4.825a1.159,1.159,0,0,0-1.64,0L4.757,11.247a1.155,1.155,0,0,0-.342.824,1.142,1.142,0,0,0,.342.815l.527.533a1.166,1.166,0,0,0,.823.339,1.151,1.151,0,0,0,.842-.36l3.5-3.65Z" transform="translate(0 0)"/></g></g>
  </symbol>
  <symbol id="account" viewBox="0 0 24 24">
    <g transform="translate(-2 4)"><rect  fill="rgba(255,255,255,0)" width="24" height="24" transform="translate(2 -4)"/><g transform="translate(4 -4)"><path fill="inherit" d="M92.817,11.547a5.6,5.6,0,0,0,4.091-1.691A5.58,5.58,0,0,0,98.6,5.773a5.581,5.581,0,0,0-1.7-4.082,5.793,5.793,0,0,0-8.181,0,5.581,5.581,0,0,0-1.7,4.082,5.58,5.58,0,0,0,1.7,4.082A5.605,5.605,0,0,0,92.817,11.547Zm0,0" transform="translate(-82.957)"/><path fill="inherit" d="M19.975,254.17a14.244,14.244,0,0,0-.194-1.515,11.921,11.921,0,0,0-.373-1.523,7.517,7.517,0,0,0-.627-1.42,5.36,5.36,0,0,0-.945-1.23,4.168,4.168,0,0,0-1.358-.852,4.7,4.7,0,0,0-1.733-.313,1.76,1.76,0,0,0-.94.4c-.282.183-.611.4-.979.63a5.612,5.612,0,0,1-1.266.557,4.923,4.923,0,0,1-3.1,0,5.6,5.6,0,0,1-1.265-.557c-.364-.232-.694-.445-.98-.631a1.758,1.758,0,0,0-.939-.4,4.691,4.691,0,0,0-1.733.314,4.165,4.165,0,0,0-1.358.852,5.361,5.361,0,0,0-.945,1.23,7.532,7.532,0,0,0-.627,1.42,11.949,11.949,0,0,0-.373,1.523,14.193,14.193,0,0,0-.194,1.515c-.032.459-.048.935-.048,1.416A3.978,3.978,0,0,0,1.184,258.6a4.264,4.264,0,0,0,3.05,1.111H15.79a4.263,4.263,0,0,0,3.05-1.111,3.976,3.976,0,0,0,1.184-3.012C20.023,255.1,20.007,254.626,19.975,254.17Zm0,0" transform="translate(0 -235.708)"/></g></g>
  </symbol>
  <symbol id="visa" viewBox="0 0 66.591 22.573">
    <path fill="inherit" d="M38.35,22.573a14.824,14.824,0,0,1-6.134-1.232l.808-4.9a9.067,9.067,0,0,0,5.3,1.528c2.3,0,3.671-.782,3.671-2.092,0-1.243-1.328-1.976-2.866-2.826A13.568,13.568,0,0,1,36,10.923a5.026,5.026,0,0,1-1.529-3.7,6.431,6.431,0,0,1,1.043-3.654,6.946,6.946,0,0,1,2.5-2.2A12.382,12.382,0,0,1,43.574,0,15.239,15.239,0,0,1,48.46.95l-.775,4.684a9.415,9.415,0,0,0-4.357-1.028,5.285,5.285,0,0,0-2.288.426,1.527,1.527,0,0,0-.971,1.412c0,.979,1.224,1.668,2.64,2.465,2.2,1.239,4.944,2.782,4.944,6.2a6.635,6.635,0,0,1-3.261,5.78A11.7,11.7,0,0,1,38.35,22.573ZM52.924,22.2H47.26l8.1-20.184A2.533,2.533,0,0,1,57.873.389H62.24L66.591,22.2H61.6l-.638-3.239H54.057L52.924,22.2ZM58.477,6.321l-2.854,8.163h4.461ZM28.868,22.2H23.434L26.83.389h5.434L28.868,22.2Zm-12.8,0H10.4L5.687,3.256c-.134-.085-.257-.16-.375-.231L5.02,2.852c-.172-.1-.34-.194-.5-.281-.1-.054-.2-.1-.294-.155s-.208-.109-.311-.16-.185-.093-.3-.149c-.093-.046-.186-.089-.277-.132s-.2-.091-.288-.134-.175-.077-.261-.114c-.187-.081-.343-.148-.495-.209l-.119-.047-.1-.039-.257-.1-.2-.075-.227-.08c-.062-.022-.125-.044-.184-.063s-.135-.047-.2-.066L.842.994C.751.965.667.94.59.917L.543.9.438.873.33.843.22.814.182.8.15.8.071.776.05.771l-.014,0A.325.325,0,0,1,0,.759L.1.389H8.664a2.371,2.371,0,0,1,2.577,1.965l1.828,9.807.614,3.229,5.18-15h5.848L16.066,22.2Z"/>
  </symbol>
  <symbol id="eye" viewbox="0 0 20.537 20.537">
    <path fill="none" d="M0,0H20.537V20.537H0Z"/><path fill="inherit" stroke="rgba(0,0,0,0)" stroke-miterlimit="10" d="M9.413,12.839a10.04,10.04,0,0,1-5.756-1.8A10.136,10.136,0,0,1,0,6.418a10.112,10.112,0,0,1,18.824,0,10.139,10.139,0,0,1-3.656,4.619A10.042,10.042,0,0,1,9.413,12.839Zm0-10.7a4.278,4.278,0,1,0,4.279,4.276A4.283,4.283,0,0,0,9.413,2.142Z" transform="translate(0.856 3.849)"/><path fill="inherit" d="M2.567,0A2.567,2.567,0,1,0,5.134,2.567,2.564,2.564,0,0,0,2.567,0Z" transform="translate(7.701 7.701)"/>
  </symbol>
  <symbol id="deactivate" viewBox="0 0 32 32">
    <g transform="translate(213 -305)"><circle fill="#325baf" cx="16" cy="16" r="16" transform="translate(-213 305)"/><g transform="translate(-236.222 315)"><path fill="#9ac0fa" d="M64.444,138.522a1.925,1.925,0,0,0,1.919,1.927h7.675a1.925,1.925,0,0,0,1.919-1.927v-9.633H64.444Z" transform="translate(-31.259 -126.449)"/><path fill="#f1f3f4" d="M40.861-.037V-1h-3.84v.963h-4.8V2.212H45.661V-.037Z" transform="translate(0 -1)"/></g></g>
  </symbol>
  <symbol id="set-limit" viewBox="0 0 32 32">
    <g transform="translate(213 -305)"><circle fill="#325baf" cx="16" cy="16" r="16" transform="translate(-213 305)"/><g transform="translate(-206 222.078)"><g transform="translate(0 90.922)"><path fill="#9ac0fa" stroke="#325baf" stroke-linecap="round" stroke-linejoin="round" stroke-width="0.25px" d="M40.53,166.985a.219.219,0,0,0-.054-.159l-1.737-1.977a.219.219,0,0,0-.31-.02,9.039,9.039,0,0,0-1.97,2.46.219.219,0,0,0,.087.3l2.309,1.262a.219.219,0,0,0,.3-.087,5.976,5.976,0,0,1,1.3-1.626A.219.219,0,0,0,40.53,166.985Z" transform="translate(-35.357 -162.636)"/><path fill="#9ac0fa" stroke="#325baf" stroke-linecap="round" stroke-linejoin="round" stroke-width="0.25px" d="M160.092,96.836a.219.219,0,0,0,.3.091,5.905,5.905,0,0,1,1.979-.637.219.219,0,0,0,.188-.247l-.354-2.608a.22.22,0,0,0-.247-.188,8.964,8.964,0,0,0-3,.967.219.219,0,0,0-.091.3Z" transform="translate(-154.166 -93.207)"/><path fill="#9ac0fa" stroke="#325baf" stroke-linecap="round" stroke-linejoin="round" stroke-width="0.25px" d="M3.123,311.445l-2.54-.689a.219.219,0,0,0-.269.154A9.059,9.059,0,0,0,0,313.281c0,.138,0,.275.01.422a.219.219,0,0,0,.219.209h.01l2.629-.121a.219.219,0,0,0,.209-.229c0-.1-.007-.19-.007-.28a5.986,5.986,0,0,1,.208-1.567A.219.219,0,0,0,3.123,311.445Z" transform="translate(0 -304.321)"/><path fill="#9ac0fa" stroke="#325baf" stroke-linecap="round" stroke-linejoin="round" stroke-width="0.25px" d="M322.6,92.773a8.969,8.969,0,0,0-3.039-.85.219.219,0,0,0-.239.2l-.254,2.619a.219.219,0,0,0,.2.239,5.908,5.908,0,0,1,2,.56.219.219,0,0,0,.293-.1l1.143-2.371A.219.219,0,0,0,322.6,92.773Z" transform="translate(-309.693 -91.922)"/><path fill="#9ac0fa" stroke="#325baf" stroke-linecap="round" stroke-linejoin="round" stroke-width="0.25px" d="M434.723,159.96a.219.219,0,0,0-.024-.166,9.042,9.042,0,0,0-2.062-2.382.219.219,0,0,0-.308.032l-1.661,2.042a.219.219,0,0,0,.032.309,5.978,5.978,0,0,1,1.364,1.576.219.219,0,0,0,.3.076l2.259-1.35A.22.22,0,0,0,434.723,159.96Z" transform="translate(-417.973 -155.441)"/><path fill="#9ac0fa" stroke="#325baf" stroke-linecap="round" stroke-linejoin="round" stroke-width="0.25px" d="M501.419,299.883a.219.219,0,0,0-.275-.144l-2.511.787a.219.219,0,0,0-.144.275,5.968,5.968,0,0,1,.272,1.786c0,.09,0,.181-.007.28a.219.219,0,0,0,.209.229l2.629.121h.01a.219.219,0,0,0,.219-.209c.007-.146.01-.284.01-.422A9.035,9.035,0,0,0,501.419,299.883Z" transform="translate(-483.831 -293.626)"/><path fill="#f1f3f4" d="M173.745,310.747c-.038,0-.075,0-.113,0l-3.562-2.1a.226.226,0,0,0-.314.3l1.943,3.642a2.093,2.093,0,0,0-.011.212,2.057,2.057,0,1,0,2.057-2.057Z" transform="matrix(0.985, 0.174, -0.174, 0.985, -106.99, -325.533)"/></g></g></g>
  </symbol>
  <symbol id="replace" viewBox="0 0 32 32">
    <g transform="translate(213 -305)"><circle fill="#325baf" cx="16" cy="16" r="16" transform="translate(-213 305)"/><path fill="#f1f3f4" stroke="#f1f3f4" d="M11.148,13.187a6.28,6.28,0,0,1-3.619,1.139H7.5c-.089,0-.179,0-.269-.006a.587.587,0,0,0-.049,1.173c.105,0,.212.007.317.007h.029a7.445,7.445,0,0,0,4.291-1.35.587.587,0,0,0-.671-.963Zm-8.295-.9a.586.586,0,1,0-.86.8c.132.143.272.283.414.415a.587.587,0,0,0,.8-.862C3.083,12.529,2.965,12.411,2.853,12.29Zm-1.288-2.1a.586.586,0,1,0-1.1.409c.068.183.144.365.226.542a.586.586,0,1,0,1.063-.494C1.686,10.5,1.622,10.346,1.565,10.192ZM5.3,13.932c-.154-.057-.308-.121-.457-.191a.587.587,0,0,0-.493,1.065c.177.082.359.158.542.226a.587.587,0,0,0,.408-1.1Z" transform="translate(-204.63 313)"/><path fill="#9ac0fa" stroke="#9ac0fa" stroke-linecap="square" stroke-width="0.6px" d="M15,7.928v.029a7.4,7.4,0,0,1-1.178,3.984.588.588,0,0,1-.809.177.581.581,0,0,1-.178-.8A6.264,6.264,0,0,0,7.529,1.665,6.368,6.368,0,0,0,2.118,4.692l1.339,0a.583.583,0,1,1,0,1.165h0l-1.714,0a1.721,1.721,0,0,1-1.229-.5A1.74,1.74,0,0,1,0,4.1V2.422a.586.586,0,0,1,1.172,0V4A7.513,7.513,0,0,1,12.819,2.685,7.405,7.405,0,0,1,15,7.928Z" transform="translate(-204.499 313)"/></g>
  </symbol>
  <symbol id="freez-card" viewbox="0 0 32 32">
    <g xmlns="http://www.w3.org/2000/svg" transform="translate(213 -305)"><circle fill="#325baf" cx="16" cy="16" r="16" transform="translate(-213 305)"/><path fill="#9ac0fa" d="M17,7.437H14.736L15.759,5.9,13.991,4.725,12.182,7.437H9.562V4.376l2.6-1.3-.949-1.9L9.562,2V0H7.437V2l-1.65-.824-.949,1.9,2.6,1.3V7.437H4.818L3.009,4.725,1.241,5.9,2.264,7.437H0V9.562H2.265L1.241,11.1l1.768,1.179,1.81-2.716H7.438v2.619L4.723,13.993,5.9,15.761l1.535-1.024V17H9.562V14.736L11.1,15.761l1.18-1.768L9.562,12.181V9.563h2.619l1.81,2.716L15.759,11.1,14.735,9.562H17Z" transform="translate(-197.23 308.916) rotate(45)"/></g>
  </symbol>
  <symbol id="g-pay" viewBox="0 0 32 32">
    <g transform="translate(213 -305)"><g fill="#fff" stroke="#eee" transform="translate(-213 305)"><circle stroke="none" cx="16" cy="16" r="16"/><circle fill="none" cx="16" cy="16" r="15.5"/></g><g transform="translate(-203.25 314.5)"><path fill="#4285f4" fill-rule="evenodd" d="M60.988,47.06a8.1,8.1,0,0,0-.106-1.311h-6.01v2.487h3.443A3,3,0,0,1,57.041,50.2v1.616h2.053A6.352,6.352,0,0,0,60.988,47.06Z" transform="translate(-48.497 -40.451)"/><path fill="#34a853" fill-rule="evenodd" d="M12.231,71.408a6.045,6.045,0,0,0,4.222-1.562L14.4,68.23a3.78,3.78,0,0,1-2.168.619,3.82,3.82,0,0,1-3.576-2.666H6.54v1.67A6.356,6.356,0,0,0,12.231,71.408Z" transform="translate(-5.856 -58.48)"/><path fill="#fbbc04" fill-rule="evenodd" d="M3.532,35.172a3.954,3.954,0,0,1,0-2.478V31.033H1.417a6.492,6.492,0,0,0,0,5.8Z" transform="translate(-0.733 -27.468)"/><path fill-rule="evenodd"  fill="#ea4335" d="M12.231,3.318a3.4,3.4,0,0,1,2.443.97L16.5,2.438A6.1,6.1,0,0,0,12.231.76,6.365,6.365,0,0,0,6.54,4.324l2.115,1.67A3.816,3.816,0,0,1,12.231,3.318Z" transform="translate(-5.856 -0.759)"/></g></g>
  </symbol>
  <symbol id="card-details" viewBox="0 0  24 24">
    <g transform="translate(29 -205)"><rect fill="rgba(255,255,255,0)" width="24" height="24" transform="translate(-29 205)"/><g transform="translate(-27 207)"><path fill="rgba(50,91,175,0.15)" d="M22.4,34.525V23.9A3.916,3.916,0,0,1,26.323,20h-2.4A3.916,3.916,0,0,0,20,23.9v10.62a3.916,3.916,0,0,0,3.927,3.9h2.4A3.916,3.916,0,0,1,22.4,34.525Z" transform="translate(-19.215 -19.215)"/><path fill="#325baf" d="M15.313,20H4.688A4.693,4.693,0,0,1,0,15.313V4.688A4.693,4.693,0,0,1,4.688,0H15.313A4.693,4.693,0,0,1,20,4.688V15.313A4.693,4.693,0,0,1,15.313,20ZM4.688,1.562A3.129,3.129,0,0,0,1.562,4.688V15.313a3.129,3.129,0,0,0,3.125,3.125H15.313a3.129,3.129,0,0,0,3.125-3.125V4.688a3.129,3.129,0,0,0-3.125-3.125ZM8.242,3.945a.781.781,0,0,0-.781-.781H4.18a.781.781,0,0,0,0,1.563H7.461A.781.781,0,0,0,8.242,3.945Zm7.148,9.1a.781.781,0,0,0-.781-.781H8.086a.781.781,0,1,0,0,1.562h6.523A.781.781,0,0,0,15.391,13.047Zm1.055,3.047a.781.781,0,0,0-.781-.781H13.945a.781.781,0,1,0,0,1.562h1.719A.781.781,0,0,0,16.445,16.094Z"/><path fill="#23cefd" d="M137.878,163.595h-5.537a.785.785,0,1,1,0-1.571h5.537a.785.785,0,1,1,0,1.571Zm-1.964-3.809a.785.785,0,0,0-.785-.785h-7.344a.785.785,0,0,0,0,1.571h7.344A.785.785,0,0,0,135.915,159.785Z" transform="translate(-122.076 -152.799)"/></g></g>
  </symbol>
  <symbol id="activity" viewBox="0 0 24 24">
    <g transform="translate(29 -205)"><rect fill="rgba(255,255,255,0)" width="24" height="24" transform="translate(-29 205)"/><g transform="translate(-27.011 207)"><path fill="#325baf" opacity="0.15" d="M25.758,35.53H23.921a1.564,1.564,0,1,1,0-3.129h2.347a1.565,1.565,0,0,0-.524,3.039q.007.041.015.082ZM24.73,26.222a.574.574,0,0,1-.912.148l-1.137-1.128a1.1,1.1,0,0,1,0-1.561l1.137-1.128a.573.573,0,0,1,.944.226h.527V21.2a1.239,1.239,0,0,0-2.107-.875l-2.468,2.446a2.388,2.388,0,0,0,0,3.388L23.183,28.6a1.239,1.239,0,0,0,2.107-.875V26.222Z" transform="translate(-19.217 -19.183)"/><path fill="#325baf" d="M15.216,20a2.009,2.009,0,0,1-2-2.015V16.326a.781.781,0,1,1,1.562,0v1.659a.43.43,0,0,0,.269.416.412.412,0,0,0,.465-.1l2.465-2.443a1.6,1.6,0,0,0,0-2.274L15.51,11.144a.412.412,0,0,0-.465-.1.43.43,0,0,0-.269.416V13.2a.781.781,0,0,1-.781.781H4.7a.781.781,0,0,0,0,1.562h1.25a.781.781,0,1,1,0,1.562H4.7a2.344,2.344,0,1,1,0-4.687h8.515v-.956a2,2,0,0,1,1.231-1.858,1.96,1.96,0,0,1,2.166.429l2.465,2.443a3.166,3.166,0,0,1,0,4.493L16.61,19.414A1.972,1.972,0,0,1,15.216,20Zm-9.61-9.614A1.98,1.98,0,0,0,6.847,8.532V7.654h8.476a2.344,2.344,0,0,0,0-4.687H6.847V2.011A1.98,1.98,0,0,0,5.606.157a2.01,2.01,0,0,0-2.2.425L.946,3.025a3.166,3.166,0,0,0,0,4.493L3.411,9.961a2,2,0,0,0,1.413.582,2.031,2.031,0,0,0,.782-.157ZM5,1.6a.435.435,0,0,1,.279.412V3.748a.781.781,0,0,0,.781.781h9.257a.781.781,0,0,1,0,1.562H6.065a.781.781,0,0,0-.781.781V8.532a.456.456,0,0,1-.773.319L2.046,6.408a1.6,1.6,0,0,1,0-2.274L4.511,1.691a.423.423,0,0,1,.305-.131A.5.5,0,0,1,5,1.6ZM1.5,3.58h0Z" transform="translate(0 0)"/><path fill="#23cefd" d="M210.9,399.528h-2.112a.782.782,0,0,1,0-1.564H210.9a.782.782,0,0,1,0,1.564Z" transform="translate(-199.877 -382.425)"/></g></g>
  </symbol>
  <symbol id="file-storage" viewBox="0 0 16 16">
    <g transform="translate(0 -11.008)"><g transform="translate(0.798 15.853)"><g transform="translate(0 0)"><path fill="#009dff" d="M22.016,146.176v9.766a.6.6,0,0,0,.592.594h13.2a.6.6,0,0,0,.592-.594v-9.766Zm10.188,3.75a.6.6,0,0,1-.592.594H26.8a.6.6,0,0,1-.592-.594V148.72a.6.6,0,0,1,.592-.594h4.807a.6.6,0,0,1,.592.594Z" transform="translate(-22.016 -146.176)"/></g></g><g transform="translate(0 11.008)"><g transform="translate(0 0)"><path fill="#009dff" d="M15.39,11.008H.592A.6.6,0,0,0,0,11.6v3.509H16v-3.49A.617.617,0,0,0,15.39,11.008Z" transform="translate(0 -11.008)"/></g></g></g>
  </symbol>
</svg>

